:version 1.10
:name ASF
:units
  mass 1
  length 1
  angle deg
:documentation
  ASF file generated by Kaydara
:root
  axis xyz
  order  tx ty tz rx ry rz
  position 0 0 0
  orientation 0 0 0
:bonedata
  begin
    id 1
    name LeftUpLegDummy
    direction 1 -2.30186e-007 -8.31532e-007
    length 2.93387
    axis 0 0 0 xyz
  end
  begin
    id 2
    name LeftUpLeg
    direction -1.82929e-007 -1 -1.48925e-009
    length 17.3336
    axis -3.48766 0.00143442 -0.000521554 xyz
    dof rx ry rz
  end
  begin
    id 3
    name LeftLeg
    direction -1.82929e-007 -1 -5.23717e-011
    length 14.9995
    axis 3.68178 -0.00654042 -0.000282425 xyz
    dof rx ry rz
  end
  begin
    id 4
    name LeftFoot
    direction 8.31532e-007 -4.54534e-011 1
    length 6.74421
    axis 1.87234e-006 4.66016e-005 -5.96866e-006 xyz
    dof rx ry rz
  end
  begin
    id 5
    name LeftToes
    direction 0.00818058 -0.00485161 0.999955
    length 3.85048
    axis 1.06247e-005 4.65869e-005 -5.96999e-006 xyz
    dof rx ry rz
  end
  begin
    id 6
    name SpineDummy
    direction -5.8607e-008 0.943407 -0.331637
    length 5.93572
    axis 0 0 0 xyz
  end
  begin
    id 7
    name Spine
    direction -1.04988e-007 0.999988 0.00495137
    length 10.1015
    axis -0.001389 0.000121417 6.61666e-006 xyz
    dof rx ry rz
  end
  begin
    id 8
    name Spine1
    direction 0 0 0
    length 0
    axis -0.001389 0.00012144 6.56766e-006 xyz
    dof rx ry rz
  end
  begin
    id 9
    name RightShoulderDummy
    direction -0.98348 0.17941 -0.0240696
    length 3.59882
    axis -0.001389 0.00012144 6.56766e-006 xyz
  end
  begin
    id 10
    name RightShoulder
    direction -0.978693 0.204882 0.0135597
    length 2.70001
    axis 0.215806 0.000203631 -0.00679732 xyz
    dof rx ry rz
  end
  begin
    id 11
    name RightArm
    direction -1 3.85509e-006 8.31394e-007
    length 10.2459
    axis -23.2009 -0.134239 -0.964098 xyz
    dof rx ry rz
  end
  begin
    id 12
    name RightForeArm
    direction -1 3.85569e-006 8.3129e-007
    length 8.16799
    axis -9.92322 0.0658061 0.17887 xyz
    dof rx ry rz
  end
  begin
    id 13
    name RightHand
    direction -0.992843 -0.0414604 0.112003
    length 5.28593
    axis -0.00960638 0.00330669 -0.185225 xyz
    dof rx ry rz
  end
  begin
    id 14
    name LeftShoulder1Dummy
    direction 0.983523 0.179172 -0.0240748
    length 3.59866
    axis -0.001389 0.00012144 6.56766e-006 xyz
  end
  begin
    id 15
    name LeftShoulder1
    direction 0.978627 0.205195 0.0135605
    length 2.70019
    axis -0.001389 0.00012144 6.57583e-006 xyz
    dof rx ry rz
  end
  begin
    id 16
    name LeftArm
    direction 1 3.51895e-006 -8.60188e-007
    length 10.2459
    axis -23.1894 0.134785 0.967513 xyz
    dof rx ry rz
  end
  begin
    id 17
    name LeftForeArm
    direction 1 3.51921e-006 -7.32029e-007
    length 8.16799
    axis -9.91835 -0.0656957 -0.177789 xyz
    dof rx ry rz
  end
  begin
    id 18
    name LeftHand
    direction 0.992938 -0.0411636 0.11126
    length 5.32135
    axis -0.00960237 -0.00340661 0.185177 xyz
    dof rx ry rz
  end
  begin
    id 19
    name HEadDummy
    direction 1.01974e-006 0.999861 -0.016675
    length 2.99946
    axis -0.001389 0.00012144 6.56766e-006 xyz
  end
  begin
    id 20
    name HEad
    direction -0.0222689 0.980941 0.193023
    length 5.12695
    axis -0.001389 0.00012144 6.56766e-006 xyz
    dof rx ry rz
  end
  begin
    id 21
    name RightUpLegDummy
    direction -1 2.30186e-007 8.31532e-007
    length 2.93387
    axis 0 0 0 xyz
  end
  begin
    id 22
    name RightUpLeg
    direction -1.82966e-007 -1 1.56832e-007
    length 17.3336
    axis -3.4909 -0.000906625 0.00028951 xyz
    dof rx ry rz
  end
  begin
    id 23
    name RightLeg
    direction -1.82786e-007 -1 -1.80317e-007
    length 14.9995
    axis 3.68513 0.0193739 -0.131021 xyz
    dof rx ry rz
  end
  begin
    id 24
    name RightFoot
    direction 8.31721e-007 -4.63324e-011 1
    length 6.74421
    axis 4.81691e-005 -0.120479 -0.188785 xyz
    dof rx ry rz
  end
  begin
    id 25
    name RightToes
    direction 0.00124746 -0.014064 0.9999
    length 3.85082
    axis 0.000481921 0.542163 -0.142575 xyz
    dof rx ry rz
  end
:hierarchy
  begin
    root LeftUpLegDummy SpineDummy RightUpLegDummy
    LeftUpLegDummy LeftUpLeg
    LeftUpLeg LeftLeg
    LeftLeg LeftFoot
    LeftFoot LeftToes
    SpineDummy Spine
    Spine Spine1
    Spine1 RightShoulderDummy LeftShoulder1Dummy HEadDummy
    RightShoulderDummy RightShoulder
    RightShoulder RightArm
    RightArm RightForeArm
    RightForeArm RightHand
    LeftShoulder1Dummy LeftShoulder1
    LeftShoulder1 LeftArm
    LeftArm LeftForeArm
    LeftForeArm LeftHand
    HEadDummy HEad
    RightUpLegDummy RightUpLeg
    RightUpLeg RightLeg
    RightLeg RightFoot
    RightFoot RightToes
  end

:SAMPLES-PER-SECOND 30
:FULLY-SPECIFIED
:DEGREES
212
root  2.49719 34.2721 6.18432 13.569 43.0452 1.17246
LeftUpLeg  -19.1267 5.13732 3.89071
LeftLeg  12.0845 -7.12656 -1.05127
LeftFoot  6.47732 0.050617 -0.863872
LeftToes  -24.3927 1.85109e-006 5.31342e-008
Spine  3.53204 4.99083 -3.92313
Spine1  6.38968 10.3775 -7.77233
RightShoulder  0.105817 9.8879 10.0299
RightArm  -35.6063 -5.68711 51.0935
RightForeArm  41.8854 12.2484 2.17941
RightHand  1.97935 -14.5146 -15.0738
LeftShoulder1  0.0222105 1.42598 -6.4037
LeftArm  -21.4963 12.3424 -66.5267
LeftForeArm  23.991 -38.3335 -8.01465
LeftHand  0.132537 2.79236 5.05134
HEad  -20.3246 -43.4367 21.785
RightUpLeg  -7.90163 -21.5263 -9.04128
RightLeg  12.7238 -20.8634 -3.2325
RightFoot  13.1034 0.618214 -5.00109
RightToes  -53.6863 -0.335968 -0.378706
213
root  2.11259 34.1699 6.42969 13.3627 40.8106 1.6482
LeftUpLeg  -18.4057 6.10256 4.3096
LeftLeg  12.2783 -6.20989 -0.938263
LeftFoot  6.40673 0.0458118 -0.748155
LeftToes  -26.2744 1.85109e-006 5.31342e-008
Spine  3.2868 4.7211 -3.98209
Spine1  5.9142 9.80698 -7.88982
RightShoulder  0.0976854 9.57608 10.0537
RightArm  -39.1411 -5.4202 53.6675
RightForeArm  38.1982 13.4759 2.41085
RightHand  2.06883 -15.0852 -15.1541
LeftShoulder1  0.0228252 1.44679 -6.08845
LeftArm  -20.1333 11.8193 -66.8836
LeftForeArm  24.3868 -40.1284 -8.55003
LeftHand  0.1207 2.6305 4.87061
HEad  -18.6565 -40.6993 18.9878
RightUpLeg  -7.99118 -20.3085 -8.24836
RightLeg  12.1772 -23.9408 -3.45437
RightFoot  10.2793 0.445889 -4.5764
RightToes  -49.037 -0.294393 -0.360279
214
root  1.66289 34.0552 6.7036 13.246 38.5323 2.22274
LeftUpLeg  -17.3186 6.88824 4.7722
LeftLeg  11.656 -5.04104 -0.706554
LeftFoot  6.79615 0.0416626 -0.644617
LeftToes  -28.4976 1.85109e-006 5.31342e-008
Spine  3.07987 4.48174 -4.02211
Spine1  5.52874 9.28913 -7.93975
RightShoulder  0.0934612 9.22536 10.0203
RightArm  -40.7577 -5.38877 56.8337
RightForeArm  34.258 15.2957 2.75597
RightHand  2.04963 -15.4415 -14.6569
LeftShoulder1  0.0231243 1.444 -5.96649
LeftArm  -18.8453 11.3817 -66.6732
LeftForeArm  24.5377 -41.5861 -9.00689
LeftHand  0.106775 2.57676 4.36319
HEad  -17.2797 -37.8172 16.2155
RightUpLeg  -8.20237 -19.9661 -7.36395
RightLeg  11.5857 -27.0744 -3.59805
RightFoot  7.63969 0.286616 -3.91282
RightToes  -45.679 -0.265364 -0.344904
215
root  1.16149 33.9637 6.99102 12.7726 36.4542 2.23327
LeftUpLeg  -16.2203 7.17558 5.79072
LeftLeg  10.9818 -3.38427 -0.434544
LeftFoot  7.44296 0.0330195 -0.485679
LeftToes  -30.4241 1.85109e-006 5.31342e-008
Spine  3.01227 4.32296 -3.87216
Spine1  5.36893 8.98403 -7.68068
RightShoulder  0.107323 9.09275 10.3212
RightArm  -41.1102 -5.71412 59.8201
RightForeArm  32.023 17.2831 3.13775
RightHand  1.86266 -15.491 -13.2557
LeftShoulder1  0.0231273 1.56354 -6.16293
LeftArm  -17.9044 10.7609 -66.1679
LeftForeArm  24.719 -42.5849 -9.33244
LeftHand  0.0902833 2.28132 4.14942
HEad  -16.3488 -34.9038 13.8138
RightUpLeg  -8.18519 -18.0068 -6.41283
RightLeg  11.064 -28.3241 -3.49863
RightFoot  5.47984 0.15912 -2.94604
RightToes  -42.136 -0.235767 -0.326867
216
root  0.626916 33.9199 7.27588 11.861 34.8854 1.55567
LeftUpLeg  -15.2734 6.54334 7.47225
LeftLeg  10.585 -1.06872 -0.130605
LeftFoot  8.27919 0.0146171 -0.201971
LeftToes  -31.8804 1.85109e-006 5.31342e-008
Spine  3.05097 4.19776 -3.47254
Spine1  5.4159 8.77548 -6.97115
RightShoulder  0.13085 8.82207 10.8119
RightArm  -39.6726 -6.15759 62.4465
RightForeArm  31.4048 18.6513 3.40483
RightHand  1.67074 -14.8968 -12.3524
LeftShoulder1  0.0228541 1.70465 -6.67782
LeftArm  -17.4809 10.0428 -65.767
LeftForeArm  25.0639 -42.8956 -9.4359
LeftHand  0.0816755 1.98075 4.33686
HEad  -15.6753 -32.0757 11.5159
RightUpLeg  -8.69212 -17.9073 -5.29278
RightLeg  12.7259 -26.1172 -3.99162
RightFoot  3.98236 0.0804537 -1.9359
RightToes  -43.1198 -0.243873 -0.332059
217
root  0.0685799 33.9166 7.57666 10.9376 33.986 0.848934
LeftUpLeg  -14.5376 5.3855 9.22038
LeftLeg  10.3998 1.22003 0.142497
LeftFoot  9.32352 -0.0125582 0.153998
LeftToes  -32.6596 1.85109e-006 5.31342e-008
Spine  3.02193 3.88734 -2.99683
Spine1  5.40277 8.15821 -6.07364
RightShoulder  0.138774 8.3428 10.8976
RightArm  -37.0397 -6.80063 65.2526
RightForeArm  33.1109 19.07 3.48608
RightHand  1.44741 -13.7351 -11.5992
LeftShoulder1  0.0223244 1.86568 -7.04536
LeftArm  -17.7033 9.80436 -65.7479
LeftForeArm  25.594 -42.1759 -9.19776
LeftHand  0.0712763 1.56105 4.83672
HEad  -14.6904 -29.5565 9.37711
RightUpLeg  -9.15224 -18.9841 -4.08783
RightLeg  14.6327 -22.9348 -4.29888
RightFoot  2.31556 0.0268455 -0.95044
RightToes  -42.2352 -0.236581 -0.327397
218
root  -0.543893 33.9337 7.89157 10.0991 33.1277 0.0717756
LeftUpLeg  -14.0215 4.58633 10.9874
LeftLeg  10.3284 3.36597 0.390808
LeftFoot  10.7247 -0.0554363 0.590584
LeftToes  -33.5545 1.85109e-006 5.31342e-008
Spine  2.9518 3.62222 -2.53339
Spine1  5.34829 7.59166 -5.14697
RightShoulder  0.132603 7.7665 10.7695
RightArm  -35.1026 -7.66319 68.0118
RightForeArm  36.5939 19.0156 3.47233
RightHand  1.12808 -12.3321 -10.0381
LeftShoulder1  0.0215579 1.79224 -7.09103
LeftArm  -18.3389 10.0011 -66.0202
LeftForeArm  25.8763 -40.8438 -8.7715
LeftHand  0.0795478 1.66883 5.06666
HEad  -14.0925 -27.4141 8.0518
RightUpLeg  -9.34723 -18.6435 -2.36615
RightLeg  15.3764 -22.3531 -4.48874
RightFoot  1.04371 0.00701675 -0.392538
RightToes  -40.2461 -0.220452 -0.316508
219
root  -1.15629 33.952 8.20741 9.60731 31.7761 -0.410312
LeftUpLeg  -13.763 4.9314 12.2447
LeftLeg  10.6633 5.53794 0.675841
LeftFoot  12.2407 -0.123087 1.14785
LeftToes  -34.2159 1.85109e-006 5.31342e-008
Spine  2.83081 3.46383 -2.29013
Spine1  5.14243 7.26628 -4.68808
RightShoulder  0.14039 7.65225 10.9947
RightArm  -34.098 -8.68226 70.3644
RightForeArm  39.5361 18.175 3.30414
RightHand  0.888452 -11.1402 -8.71604
LeftShoulder1  0.0205744 1.75053 -6.93249
LeftArm  -18.8848 10.626 -66.0386
LeftForeArm  25.8335 -39.1485 -8.25402
LeftHand  0.0855995 1.79093 5.08273
HEad  -13.5731 -25.0341 7.25486
RightUpLeg  -9.38276 -17.5274 -0.84258
RightLeg  15.3163 -22.2371 -4.44319
RightFoot  0.0543682 0.00016869 0.0216983
RightToes  -38.0627 -0.203195 -0.303919
220
root  -1.71935 33.9526 8.49816 9.22388 30.0557 -0.568182
LeftUpLeg  -13.4859 5.90667 12.8538
LeftLeg  11.3382 8.75832 1.17135
LeftFoot  13.6059 -0.245453 2.0573
LeftToes  -34.2559 1.85109e-006 5.31342e-008
Spine  2.74446 3.38977 -2.12891
Spine1  4.98476 7.11869 -4.38971
RightShoulder  0.154578 7.55711 11.3438
RightArm  -33.3124 -9.53173 72.1334
RightForeArm  40.7438 16.6362 3.0048
RightHand  0.795362 -11.0488 -7.8349
LeftShoulder1  0.0181737 1.81483 -7.09288
LeftArm  -18.9375 11.3229 -65.7654
LeftForeArm  25.5511 -36.7769 -7.57189
LeftHand  0.0823909 1.81107 4.96473
HEad  -13.1201 -22.6311 6.54848
RightUpLeg  -9.65408 -17.2338 0.177269
RightLeg  16.0679 -20.6898 -4.42595
RightFoot  -1.22914 0.00153998 0.521415
RightToes  -36.0617 -0.187812 -0.291812
221
root  -2.21993 33.9407 8.79161 8.75366 28.2244 -0.717185
LeftUpLeg  -12.9924 6.81234 13.1765
LeftLeg  11.9575 13.2697 1.91083
LeftFoot  14.7886 -0.447691 3.44869
LeftToes  -33.4863 1.85109e-006 5.31342e-008
Spine  2.65452 3.3095 -1.92372
Spine1  4.83393 6.94572 -3.98988
RightShoulder  0.167727 7.49982 11.6213
RightArm  -32.665 -10.417 73.3251
RightForeArm  41.8024 14.7412 2.6434
RightHand  0.743715 -11.4242 -7.05087
LeftShoulder1  0.0151133 2.02202 -7.56211
LeftArm  -18.8443 12.201 -65.4236
LeftForeArm  25.7641 -33.8144 -6.77849
LeftHand  0.0765078 1.7505 4.61649
HEad  -12.6327 -20.2244 5.62306
RightUpLeg  -9.65498 -16.6251 1.05791
RightLeg  16.6839 -19.4301 -4.38293
RightFoot  -2.39355 0.011153 0.911687
RightToes  -34.1028 -0.17317 -0.279446
222
root  -2.67924 33.9242 9.05689 8.34342 26.3463 -0.854044
LeftUpLeg  -12.7057 8.264 13.2097
LeftLeg  12.8638 18.2549 2.89719
LeftFoot  15.7902 -0.718411 5.17711
LeftToes  -32.2799 1.85109e-006 5.31342e-008
Spine  2.55651 3.23638 -1.7207
Spine1  4.67897 6.77437 -3.58014
RightShoulder  0.176204 7.50985 11.7976
RightArm  -32.5374 -11.4205 73.9632
RightForeArm  44.2689 13.0913 2.33195
RightHand  0.615178 -11.3969 -5.7858
LeftShoulder1  0.0119023 2.16806 -7.98034
LeftArm  -19.0104 13.2723 -65.334
LeftForeArm  26.2999 -30.5337 -5.96354
LeftHand  0.0765382 1.9615 4.08426
HEad  -12.2857 -17.8312 4.59627
RightUpLeg  -9.50049 -15.9657 1.868
RightLeg  16.9232 -18.2729 -4.21122
RightFoot  -3.38244 0.0239207 1.18794
RightToes  -32.1803 -0.15922 -0.266831
